<svg xmlns="http://www.w3.org/2000/svg" version="1.1" xmlns:xlink="http://www.w3.org/1999/xlink" xmlns:svgjs="http://svgjs.com/svgjs" width="1440" height="560" preserveAspectRatio="none" viewBox="0 0 1440 560"><g mask="url(&quot;#SvgjsMask1006&quot;)" fill="none"><rect width="1440" height="560" x="0" y="0" fill="rgba(0, 0, 0, 1)"></rect><path d="M 0,107 C 57.6,136.6 172.8,262 288,255 C 403.2,248 460.8,77.4 576,72 C 691.2,66.6 748.8,234 864,228 C 979.2,222 1036.8,58.8 1152,42 C 1267.2,25.2 1382.4,123.6 1440,144L1440 560L0 560z" fill="rgba(227, 25, 25, 1)"></path><path d="M 0,294 C 96,347 288,538.8 480,559 C 672,579.2 768,397.4 960,395 C 1152,392.6 1344,516.6 1440,547L1440 560L0 560z" fill="rgba(235, 194, 37, 1)"></path></g><defs><mask id="SvgjsMask1006"><rect width="1440" height="560" fill="#ffffff"></rect></mask></defs></svg>